# xmcd
#
# Track frame offsets: 
#        150
#        17684
#        47030
#        68254
#        85188
#        112732
#        131170
#        158906
#        184612
#        204047
#        220274
#        243360
#
# Disc length: 3470 seconds
#
# Revision: 0
# Processed by: cddbd v1.5.2PL0 Copyright (c) Steve Scherf et al.
# Submitted via: ExactAudioCopy v1.2
#
DISCID=910d8c0c
DTITLE=Allan Taylor - Leaving At Dawn
DYEAR=2009
DGENRE=Country
TTITLE0=Winter
TTITLE1=The Almost Man
TTITLE2=Back Home To You
TTITLE3=Provence
TTITLE4=Firefly
TTITLE5=Lay Soft On Your Pillow
TTITLE6=New York In The Seventies
TTITLE7=The Last Of The Privateers
TTITLE8=Leaving At Dawn
TTITLE9=It Could Have Been
TTITLE10=Make Another Turn
TTITLE11=Red On Green
EXTD=
EXTT0=
EXTT1=
EXTT2=
EXTT3=
EXTT4=
EXTT5=
EXTT6=
EXTT7=
EXTT8=
EXTT9=
EXTT10=
EXTT11=
PLAYORDER=
